<?xml version="1.0" standalone="no"?>
<!DOCTYPE svg PUBLIC "-//W3C//DTD SVG 20010904//EN"
 "http://www.w3.org/TR/2001/REC-SVG-20010904/DTD/svg10.dtd">
<svg version="1.0" xmlns="http://www.w3.org/2000/svg"
 width="500.000000pt" height="500.000000pt" viewBox="0 0 500.000000 500.000000"
 preserveAspectRatio="xMidYMid meet">
<metadata>
Created by potrace 1.14, written by Peter Selinger 2001-2017
</metadata>
<g transform="translate(0.000000,500.000000) scale(0.100000,-0.100000)"
fill="#000000" stroke="none">
<path d="M1295 3202 c-50 -10 -115 -84 -115 -129 0 -16 -8 -18 -52 -17 -29 1
-80 -6 -113 -17 -33 -10 -62 -19 -65 -19 -3 0 -6 13 -7 30 -1 16 -7 39 -13 50
-24 45 -123 71 -188 49 -43 -14 -109 -80 -118 -117 -4 -15 -10 -32 -15 -37 -4
-6 -7 -39 -6 -73 2 -58 5 -66 33 -92 17 -15 54 -33 82 -41 l51 -13 -1 -67 c-1
-74 21 -124 82 -186 29 -30 30 -33 14 -39 -59 -20 -184 -89 -217 -120 -40 -38
-70 -87 -60 -98 4 -3 2 -6 -4 -6 -18 0 -6 -72 16 -93 12 -12 32 -20 51 -19 35
1 120 33 120 45 0 4 4 7 10 7 5 0 2 -21 -8 -47 -10 -27 -20 -69 -21 -94 -2
-38 2 -50 27 -77 20 -21 36 -30 51 -27 19 3 21 -1 22 -43 1 -67 8 -113 19
-127 5 -7 8 -14 5 -17 -12 -11 54 -59 83 -60 60 -2 90 66 106 233 4 40 24 84
34 74 4 -4 8 -57 8 -118 2 -120 17 -177 53 -197 88 -46 164 56 174 232 2 35 4
37 35 36 46 -2 72 30 79 97 4 37 1 66 -11 95 -22 55 -21 61 8 50 68 -26 136
-20 158 14 13 20 8 60 -11 93 -30 48 -119 101 -255 153 l-28 10 50 40 c30 24
60 59 72 86 29 59 36 146 17 202 -10 29 -11 42 -3 43 49 3 81 27 102 74 16 39
10 135 -11 175 -22 43 -72 88 -105 95 -39 9 -110 12 -135 7z"/>
<path d="M1847 2906 c-10 -10 -13 -40 -13 -109 1 -53 -1 -93 -4 -91 -3 3 -34
48 -70 102 -65 97 -96 120 -123 93 -9 -9 -17 -238 -9 -273 5 -20 26 -30 47
-22 12 5 15 26 15 102 l0 96 50 -81 c55 -90 90 -124 119 -116 29 7 38 45 40
175 2 108 1 117 -18 127 -15 8 -23 8 -34 -3z"/>
<path d="M2584 2909 c-38 -14 -43 -31 -49 -181 -4 -114 4 -136 43 -124 18 6
20 17 21 113 0 58 2 108 5 110 2 3 14 -23 27 -57 34 -93 71 -94 96 -4 17 55
32 79 34 49 1 -11 2 -63 3 -115 l1 -95 27 -3 c35 -4 40 14 34 128 -2 47 -4 98
-5 113 -1 15 -12 39 -26 52 -34 35 -67 19 -95 -49 l-21 -51 -17 47 c-20 56
-47 79 -78 67z"/>
<path d="M2890 2910 c-29 -4 -35 -9 -35 -30 0 -22 4 -25 33 -25 l33 0 -5 -85
c-2 -47 -5 -90 -5 -97 -1 -6 -13 -13 -28 -15 -30 -3 -44 -35 -23 -48 15 -9
137 -12 161 -5 31 10 10 55 -25 55 -19 0 -22 5 -19 28 2 15 4 59 6 97 2 63 4
70 22 70 37 -1 44 54 6 56 -66 4 -90 3 -121 -1z"/>
<path d="M4249 2913 c-28 -7 -42 -55 -46 -163 -5 -123 0 -150 27 -150 29 0 34
17 35 122 1 54 4 101 8 104 3 4 14 -21 24 -55 14 -49 23 -63 42 -68 30 -8 45
12 61 78 7 27 16 49 21 49 4 0 10 -51 11 -112 3 -111 4 -113 27 -116 13 -2 27
1 31 8 8 13 5 198 -5 247 -13 68 -79 74 -108 9 -7 -17 -19 -42 -25 -56 l-11
-25 0 24 c-1 31 -40 98 -60 103 -9 2 -23 2 -32 1z"/>
<path d="M4563 2912 c-39 -4 -60 -33 -38 -52 8 -7 26 -10 39 -8 25 5 24 15 17
-169 -1 -16 -8 -23 -28 -25 -30 -3 -44 -35 -23 -48 6 -4 45 -8 85 -9 63 -1 75
1 84 17 12 23 -3 42 -35 42 -19 0 -22 5 -19 28 2 15 4 57 4 94 1 63 3 68 25
74 29 7 40 28 23 42 -13 11 -85 19 -134 14z"/>
<path d="M2000 2893 c-95 -49 -101 -221 -9 -269 40 -20 116 -25 155 -8 38 16
83 68 86 97 5 82 -14 132 -64 170 -38 29 -123 34 -168 10z m111 -43 c6 0 21
-12 34 -26 47 -51 27 -139 -36 -159 -35 -12 -88 4 -106 31 -44 67 16 179 85
158 8 -2 18 -4 23 -4z"/>
<path d="M2272 2885 c-28 -32 -31 -48 -15 -67 11 -12 15 -42 15 -107 1 -97 10
-118 48 -106 15 5 20 15 20 41 l0 35 53 -34 c70 -45 84 -49 102 -31 20 21 9
35 -57 71 l-49 27 45 13 c48 14 76 43 76 80 0 67 -56 104 -157 101 -50 -1 -65
-5 -81 -23z m158 -55 c18 -34 -4 -60 -50 -60 -43 0 -52 17 -35 68 7 21 73 15
85 -8z"/>
<path d="M3128 2886 c-106 -54 -104 -214 2 -269 73 -38 170 -3 185 65 4 16 13
32 21 35 15 6 19 39 6 47 -21 13 -134 9 -147 -5 -19 -19 -5 -38 31 -45 38 -7
40 -10 19 -34 -27 -29 -71 -26 -106 9 -57 58 -25 142 59 157 19 3 72 -16 72
-27 0 -11 47 -12 54 -1 3 5 7 20 10 35 6 33 -25 56 -46 33 -11 -11 -16 -11
-36 2 -34 22 -78 22 -124 -2z"/>
<path d="M3374 2897 c-9 -24 -10 -171 -1 -212 4 -22 15 -48 24 -57 24 -27 79
-33 118 -15 29 14 34 14 39 1 3 -8 17 -14 31 -14 29 0 28 -6 26 170 -1 68 -5
128 -10 133 -5 5 -17 7 -27 5 -16 -3 -20 -16 -24 -98 -6 -103 -13 -125 -41
-140 -26 -14 -45 -12 -64 6 -13 13 -16 36 -14 114 1 54 -2 103 -5 109 -10 15
-46 14 -52 -2z"/>
<path d="M3663 2892 c-4 -9 -13 -23 -20 -30 -17 -18 -17 -42 2 -42 11 0 15
-21 17 -107 3 -105 4 -108 27 -111 29 -4 39 10 36 49 l-2 28 36 -20 c20 -10
51 -28 70 -38 37 -22 61 -18 61 10 0 12 -19 30 -57 51 l-58 32 38 11 c68 19
98 64 78 117 -17 45 -55 62 -143 65 -67 2 -80 0 -85 -15z m143 -50 c41 -28 12
-75 -44 -70 -33 3 -36 6 -37 33 -1 17 0 33 3 38 4 9 64 9 78 -1z"/>
<path d="M3928 2892 c-7 -27 -9 -161 -2 -203 3 -20 14 -46 25 -57 25 -28 83
-38 117 -21 15 7 30 15 35 17 4 2 7 -4 7 -13 0 -12 7 -15 28 -13 l27 3 2 130
c3 160 0 175 -32 175 -30 0 -28 7 -30 -103 -2 -98 -21 -139 -68 -145 -41 -5
-53 24 -50 120 4 107 -1 128 -31 128 -15 0 -26 -7 -28 -18z"/>
<path d="M2700 2259 c-59 -13 -100 -77 -100 -156 0 -115 94 -175 197 -126 60
28 92 141 63 217 -18 48 -94 79 -160 65z m91 -58 c21 -17 24 -28 24 -84 0 -69
-12 -92 -54 -108 -82 -32 -138 58 -97 155 24 57 82 74 127 37z"/>
<path d="M3024 2256 c-11 -28 1 -255 13 -267 15 -15 135 -13 144 3 16 26 -3
39 -55 37 l-51 -3 -2 99 c-2 55 -5 110 -8 123 -6 25 -33 30 -41 8z"/>
<path d="M3344 2256 c-11 -28 1 -255 13 -267 14 -14 133 -13 147 1 16 16 -15
41 -48 40 -67 -4 -63 -9 -65 105 -1 58 -4 112 -8 120 -7 19 -32 19 -39 1z"/>
<path d="M3715 2263 c-35 -9 -65 -44 -65 -78 0 -36 24 -62 88 -94 32 -16 42
-27 42 -45 0 -41 -54 -49 -100 -14 -23 16 -33 19 -41 11 -9 -9 -4 -20 19 -42
23 -24 39 -31 69 -31 114 1 146 104 46 154 -79 41 -96 76 -47 98 22 10 31 9
57 -5 33 -19 54 -10 44 17 -11 28 -62 41 -112 29z"/>
<path d="M2256 2241 c-4 -6 -5 -30 -1 -54 3 -23 7 -75 10 -114 2 -40 7 -77 10
-83 11 -18 50 -11 113 20 50 25 64 39 82 75 19 38 20 50 10 79 -16 50 -66 78
-150 84 -44 3 -70 1 -74 -7z m154 -59 c28 -21 30 -34 17 -75 -10 -30 -49 -62
-89 -72 -24 -6 -26 -4 -25 27 0 18 -1 56 -2 83 -2 28 -2 54 -2 59 2 14 73 -2
101 -22z"/>
</g>
</svg>
