<?xml version="1.0" standalone="no"?>
<!DOCTYPE svg PUBLIC "-//W3C//DTD SVG 20010904//EN"
 "http://www.w3.org/TR/2001/REC-SVG-20010904/DTD/svg10.dtd">
<svg version="1.0" xmlns="http://www.w3.org/2000/svg"
 width="163.000000pt" height="163.000000pt" viewBox="0 0 163.000000 163.000000"
 preserveAspectRatio="xMidYMid meet">
<metadata>
Created by potrace 1.14, written by Peter Selinger 2001-2017
</metadata>
<g transform="translate(0.000000,163.000000) scale(0.100000,-0.100000)"
fill="#000000" stroke="none">
<path d="M1029 1568 c-45 -12 -84 -51 -102 -103 l-14 -39 -59 -2 c-32 -1 -81
-9 -109 -17 -27 -9 -51 -15 -53 -13 -4 4 -10 33 -11 53 -2 28 -62 72 -107 79
-97 14 -184 -44 -217 -145 -42 -130 -4 -204 115 -226 l37 -7 -2 -67 c-1 -56 3
-74 26 -113 15 -26 40 -60 57 -76 30 -30 37 -44 23 -40 -27 5 -187 -80 -230
-123 -93 -92 -88 -211 9 -211 36 0 89 22 121 50 21 19 22 6 1 -33 -8 -16 -17
-54 -20 -85 -4 -44 -1 -62 15 -87 12 -18 28 -34 36 -34 44 -4 43 -3 46 -69 3
-71 17 -119 43 -149 29 -32 61 -43 91 -29 24 11 55 62 55 91 0 9 3 18 8 20 4
3 8 33 10 68 3 64 27 138 40 125 4 -4 7 -58 8 -119 0 -94 4 -119 22 -153 65
-127 189 -24 206 171 2 28 5 54 5 60 1 5 5 5 12 -2 18 -18 60 -2 80 31 28 46
20 158 -15 205 -9 12 -7 13 8 8 44 -17 112 -28 135 -22 73 18 66 106 -15 170
-31 25 -143 80 -217 108 -16 6 -11 13 31 46 70 56 97 115 97 212 0 48 -5 82
-13 92 -11 13 -10 17 10 28 13 7 23 11 23 9 0 -2 10 0 22 4 35 11 62 78 58
146 -5 80 -51 158 -108 179 -38 14 -121 19 -158 9z"/>
</g>
</svg>
