<?xml version="1.0" standalone="no"?>
<!DOCTYPE svg PUBLIC "-//W3C//DTD SVG 20010904//EN"
 "http://www.w3.org/TR/2001/REC-SVG-20010904/DTD/svg10.dtd">
<svg version="1.0" xmlns="http://www.w3.org/2000/svg"
 width="652.000000pt" height="652.000000pt" viewBox="0 0 652.000000 652.000000"
 preserveAspectRatio="xMidYMid meet">
<metadata>
Created by potrace 1.14, written by Peter Selinger 2001-2017
</metadata>
<g transform="translate(0.000000,652.000000) scale(0.100000,-0.100000)"
fill="#000000" stroke="none">
<path d="M4345 6321 c6 -10 2 -12 -16 -7 -13 3 -18 3 -11 0 6 -3 12 -10 12
-15 0 -13 -23 -7 -38 11 -8 8 -11 9 -7 3 4 -8 0 -13 -10 -13 -9 0 -14 -4 -10
-9 3 -5 0 -13 -6 -17 -7 -4 -9 -3 -5 4 3 6 2 13 -4 17 -6 3 -13 -1 -16 -10 -6
-14 -8 -14 -20 2 -13 17 -15 17 -29 -1 -8 -11 -16 -14 -16 -8 -3 26 -4 31 -12
39 -5 4 -8 4 -6 -2 1 -5 -1 -18 -6 -28 -6 -15 -10 -16 -16 -5 -7 10 -9 10 -9
1 0 -7 -7 -13 -16 -13 -9 0 -12 5 -8 12 4 7 3 8 -5 4 -6 -4 -9 -11 -6 -16 8
-13 -21 -20 -33 -8 -8 8 -9 5 -5 -11 3 -13 1 -21 -6 -21 -7 0 -10 4 -7 9 7 10
-9 8 -36 -4 -10 -4 -15 -12 -11 -19 4 -6 -1 -5 -10 3 -15 12 -17 12 -11 -3 3
-9 1 -16 -6 -16 -6 0 -8 -5 -4 -11 4 -8 0 -8 -15 0 -12 7 -21 8 -20 4 5 -27
-1 -35 -16 -23 -13 11 -14 10 -9 -5 6 -14 4 -16 -6 -10 -10 6 -12 3 -8 -13 4
-15 2 -19 -8 -15 -8 3 -11 10 -7 17 3 6 -3 2 -15 -8 -22 -19 -30 -32 -13 -21
5 3 13 0 17 -7 4 -7 4 -10 -1 -6 -9 8 -50 -11 -41 -19 3 -3 -4 -14 -15 -24
-12 -10 -18 -23 -14 -29 4 -7 -2 -14 -14 -17 -18 -5 -19 -8 -9 -21 10 -12 10
-14 1 -8 -8 4 -13 1 -13 -9 0 -9 -4 -13 -10 -10 -5 3 -10 -3 -10 -14 0 -11 -8
-25 -17 -30 -17 -10 -16 -10 2 -11 12 0 16 -3 9 -8 -6 -4 -10 -15 -8 -24 1
-10 -2 -20 -7 -24 -14 -8 -11 -22 6 -26 10 -2 7 -7 -10 -15 -19 -8 -23 -8 -18
0 3 7 2 8 -2 4 -11 -10 -16 -39 -5 -32 9 6 23 -25 15 -33 -3 -3 -5 0 -5 6 0 7
-4 12 -8 12 -5 0 -9 -7 -9 -15 0 -8 5 -15 11 -15 6 0 4 -4 -4 -9 -8 -6 -18 -7
-24 -4 -5 3 -6 1 -2 -5 4 -6 14 -8 24 -5 11 4 9 -1 -7 -15 -13 -12 -27 -19
-31 -17 -5 3 -11 0 -13 -5 -3 -6 -4 -5 -3 2 2 7 9 12 15 11 6 -2 11 2 11 7 0
15 -32 8 -48 -10 -10 -11 -12 -12 -6 -1 5 10 3 13 -9 8 -17 -7 -41 15 -29 28
4 5 2 5 -5 1 -7 -4 -10 -12 -7 -20 3 -7 -2 -13 -10 -13 -8 0 -13 4 -11 8 3 4
-2 10 -11 13 -8 3 -12 2 -9 -4 3 -6 2 -10 -4 -10 -5 0 -12 6 -14 13 -4 9 -6 8
-6 -2 -1 -11 -4 -11 -17 0 -22 18 -44 20 -44 3 0 -8 -6 -11 -15 -8 -8 4 -12
11 -8 17 3 6 1 7 -6 3 -6 -4 -9 -12 -6 -17 4 -5 1 -9 -4 -9 -6 0 -11 5 -11 11
0 5 -5 7 -11 3 -6 -3 -15 0 -20 7 -6 10 -9 11 -9 2 0 -7 -12 -13 -26 -13 -16
0 -23 4 -18 12 4 6 3 8 -4 4 -6 -3 -9 -16 -7 -29 4 -20 3 -21 -9 -4 -7 9 -16
17 -19 17 -4 0 -4 -8 0 -17 3 -10 3 -15 -2 -11 -4 4 -14 3 -22 -3 -9 -9 -13
-8 -13 0 0 6 5 11 10 11 6 0 10 5 10 11 0 6 -12 1 -26 -10 -15 -11 -31 -18
-38 -14 -18 12 -37 12 -29 1 4 -7 -2 -9 -15 -6 -12 4 -25 1 -29 -4 -3 -6 -1
-8 4 -5 6 4 13 0 17 -8 3 -8 0 -17 -6 -21 -6 -4 -8 -3 -5 3 5 7 -6 11 -27 11
-19 0 -40 3 -47 8 -8 5 -10 3 -5 -5 5 -7 0 -18 -10 -26 -23 -16 -35 -10 -28
13 5 13 4 14 -4 3 -5 -7 -15 -10 -21 -7 -15 10 -14 -7 2 -24 6 -8 2 -6 -10 3
-16 14 -23 15 -29 6 -4 -8 -3 -10 4 -5 8 4 10 2 6 -7 -6 -16 -20 -17 -42 -3
-7 4 -19 3 -26 -3 -7 -6 -16 -7 -21 -3 -4 4 -2 -4 5 -18 12 -23 12 -24 -3 -11
-15 12 -17 11 -17 -3 0 -17 -20 -18 -32 -1 -5 6 -8 3 -8 -7 0 -11 -5 -15 -15
-12 -8 4 -12 10 -9 15 3 5 0 9 -6 9 -6 0 -8 5 -4 13 5 8 2 8 -9 -2 -10 -8 -17
-9 -17 -3 0 6 5 14 10 17 15 9 13 48 -2 39 -7 -4 -10 -3 -5 1 4 5 0 20 -10 34
-13 20 -13 23 -1 14 8 -7 18 -10 21 -6 4 3 -1 12 -11 20 -14 12 -14 14 -1 10
10 -3 15 1 13 11 -5 35 -17 62 -25 56 -9 -5 -11 3 -12 44 0 12 -4 22 -8 22 -5
0 -8 3 -7 8 3 15 -15 42 -28 42 -8 0 -14 5 -14 11 0 5 5 7 12 3 7 -4 8 -3 4 4
-4 6 -22 19 -42 28 -28 13 -32 19 -23 30 10 12 8 13 -6 8 -14 -6 -16 -4 -10 6
6 10 4 12 -8 7 -11 -4 -14 -2 -11 7 3 8 0 17 -7 22 -7 4 -10 3 -6 -3 3 -5 0
-10 -7 -10 -8 0 -12 6 -9 14 3 7 -2 13 -11 13 -9 0 -16 6 -16 13 0 8 -4 7 -10
-3 -9 -13 -14 -8 -12 11 1 4 -9 4 -21 1 -20 -5 -20 -4 -8 11 17 21 8 22 -13 1
-15 -14 -16 -13 -16 8 0 14 -3 19 -8 11 -4 -7 -17 -11 -29 -10 -12 0 -19 5
-16 11 4 5 -1 7 -10 3 -9 -3 -17 -1 -19 5 -5 15 -48 21 -48 7 0 -5 5 -7 12 -3
7 4 8 3 4 -5 -9 -14 -26 -5 -26 14 0 11 -6 12 -22 6 -25 -9 -51 -4 -43 8 2 5
-6 7 -18 7 -12 -1 -28 3 -36 8 -12 9 -12 7 -1 -14 l13 -25 -23 20 c-13 11 -20
14 -16 8 4 -7 2 -13 -3 -13 -6 0 -11 6 -11 13 0 8 -4 7 -10 -3 -8 -12 -10 -12
-10 -1 0 10 -3 11 -13 2 -8 -6 -17 -8 -21 -4 -13 13 -43 9 -42 -5 1 -8 -7 -16
-17 -17 -9 -2 -15 1 -11 6 3 5 10 6 16 3 7 -4 8 -2 4 5 -6 8 -12 9 -20 2 -7
-6 -16 -8 -20 -4 -4 4 -4 0 -1 -9 8 -19 -10 -33 -21 -17 -5 8 -3 9 6 4 8 -5
11 -4 7 3 -8 12 -32 10 -44 -3 -4 -4 -2 -5 6 0 9 5 12 4 7 -3 -4 -6 -14 -8
-23 -5 -12 5 -14 3 -8 -8 7 -11 5 -11 -10 1 -10 8 -16 10 -12 4 4 -7 0 -15 -9
-18 -25 -10 -27 -7 -13 12 13 15 12 16 -4 3 -10 -8 -16 -20 -13 -26 5 -15 -25
-14 -37 0 -5 6 -7 0 -4 -13 5 -20 3 -21 -11 -10 -14 11 -15 10 -9 -6 6 -16 5
-17 -8 -6 -13 11 -16 11 -13 -1 2 -8 -4 -13 -15 -13 -13 2 -17 -4 -15 -20 2
-15 -2 -20 -13 -18 -9 1 -19 -5 -23 -13 -3 -8 -17 -20 -31 -25 -14 -5 -25 -13
-24 -17 3 -19 -2 -33 -12 -33 -8 0 -8 4 0 14 9 11 9 16 0 22 -7 4 -9 3 -6 -3
8 -13 -27 -46 -38 -36 -4 5 -5 2 -1 -5 4 -7 11 -10 16 -7 5 3 12 1 15 -5 4 -6
3 -9 -2 -8 -4 1 -18 -3 -29 -10 -12 -6 -24 -9 -28 -7 -3 3 -4 2 -1 -2 3 -3 -1
-13 -7 -22 -8 -9 -3 -8 12 4 15 12 20 13 12 4 -6 -9 -9 -18 -6 -22 3 -3 -6 -4
-20 -3 -14 2 -23 0 -21 -4 3 -4 -2 -13 -10 -20 -8 -7 -12 -16 -10 -21 3 -4 -3
-13 -12 -19 -16 -10 -16 -11 -1 -6 12 3 15 1 11 -10 -3 -8 -8 -12 -11 -9 -3 2
-12 -5 -20 -16 -12 -18 -13 -23 -1 -30 10 -6 11 -9 2 -9 -7 0 -13 -8 -13 -17
-1 -16 -2 -16 -15 1 -17 23 -19 18 -5 -18 7 -20 6 -24 -5 -19 -8 3 -15 0 -15
-6 0 -6 5 -11 10 -11 6 0 10 -4 10 -10 0 -5 -8 -7 -17 -3 -14 5 -15 3 -6 -7
13 -14 7 -40 -9 -40 -6 0 -4 8 3 18 13 15 12 16 -4 3 -13 -10 -15 -17 -6 -27
9 -11 8 -14 -6 -14 -14 0 -13 -3 6 -21 13 -11 18 -18 11 -14 -6 3 -12 1 -12
-5 0 -6 -5 -8 -10 -5 -6 3 -10 -5 -10 -19 0 -13 5 -26 12 -28 7 -3 5 -7 -6
-11 -12 -5 -15 -3 -10 6 4 6 3 9 -1 4 -5 -4 -9 -19 -10 -33 -1 -23 0 -24 12
-8 7 10 13 13 13 6 0 -6 -9 -17 -21 -25 -15 -11 -17 -16 -7 -20 9 -4 9 -6 -3
-6 -9 -1 -16 -8 -16 -16 0 -10 6 -14 15 -10 13 5 13 3 1 -11 -16 -20 -18 -46
-4 -56 6 -5 4 -8 -5 -8 -13 0 -13 -1 0 -10 13 -9 13 -10 0 -10 -13 0 -13 -1 0
-10 12 -8 12 -10 1 -10 -11 0 -11 -3 0 -17 10 -11 10 -14 2 -9 -7 4 -13 3 -13
-3 0 -5 6 -11 13 -14 9 -3 9 -8 -2 -18 -12 -12 -13 -12 -6 0 6 10 4 12 -4 6
-9 -5 -10 -10 -2 -18 15 -15 14 -30 -1 -21 -7 4 -8 3 -4 -5 4 -6 12 -9 17 -6
5 4 9 3 10 -2 4 -44 3 -61 -3 -57 -12 8 -9 -9 5 -27 7 -9 19 -14 27 -12 13 4
13 3 0 -6 -12 -9 -13 -12 -1 -20 11 -7 11 -9 0 -14 -11 -4 -11 -6 -1 -6 8 -1
10 -6 6 -13 -6 -10 -5 -10 7 -1 12 10 15 8 15 -7 0 -10 -5 -16 -10 -13 -5 4
-6 1 -2 -6 5 -7 15 -10 23 -6 13 4 14 3 4 -9 -11 -13 -9 -15 10 -11 16 3 20 2
12 -6 -16 -16 -5 -39 19 -39 10 0 16 -4 13 -10 -3 -5 1 -10 10 -10 10 0 13 -5
9 -12 -5 -7 -2 -9 8 -5 19 7 48 -22 49 -49 0 -10 3 -13 6 -6 2 6 9 12 14 12 6
0 7 -6 3 -12 -4 -7 -4 -10 1 -6 4 4 15 2 23 -5 9 -6 13 -7 9 -1 -3 6 0 11 7
11 8 0 12 -6 9 -14 -4 -9 0 -11 13 -6 12 4 15 3 10 -5 -4 -7 0 -15 9 -19 10
-3 21 0 26 8 7 12 12 7 11 -11 0 -3 11 -6 24 -6 15 -1 21 2 17 10 -4 6 0 5 9
-2 10 -8 14 -20 11 -29 -4 -9 -2 -14 3 -10 6 3 16 2 24 -3 8 -5 21 -5 32 1 13
7 20 5 30 -10 10 -17 13 -17 23 -5 10 15 49 9 40 -6 -2 -4 7 -5 20 -2 14 2 25
9 25 14 0 6 9 0 21 -13 11 -13 18 -19 15 -13 -3 6 1 11 9 11 8 0 12 -4 9 -9
-4 -7 8 -12 27 -10 9 1 4 -36 -6 -45 -4 -5 -5 -2 0 6 6 10 4 12 -4 7 -9 -6 -9
-11 -1 -21 8 -10 7 -14 -2 -18 -10 -4 -10 -6 1 -6 11 -1 11 -4 0 -18 -11 -13
-11 -17 -1 -21 10 -3 10 -7 1 -19 -10 -12 -10 -16 2 -24 10 -6 10 -9 1 -9 -14
0 -12 -21 3 -33 6 -5 0 -7 -12 -4 -13 3 -23 1 -23 -4 0 -5 8 -9 18 -9 14 0 15
-2 2 -10 -12 -8 -12 -10 2 -15 15 -6 13 -10 -10 -31 -21 -19 -22 -23 -6 -15
16 8 21 7 21 -4 0 -8 -4 -12 -8 -9 -4 2 -10 0 -14 -6 -3 -5 -1 -10 6 -10 7 0
5 -6 -6 -13 -13 -10 -15 -16 -6 -21 6 -4 9 -11 6 -16 -3 -5 0 -12 6 -16 8 -5
9 -3 4 6 -5 9 -4 11 4 6 9 -6 9 -11 0 -22 -9 -11 -14 -12 -19 -4 -5 8 -9 6
-13 -5 -4 -9 -3 -14 2 -11 5 3 13 0 19 -7 10 -12 12 -17 12 -38 0 -5 6 -7 13
-3 9 6 9 4 1 -7 -13 -16 -12 -74 0 -86 5 -4 6 -2 2 5 -4 6 -2 12 5 12 7 0 9
-8 6 -21 -4 -15 -2 -19 8 -15 8 3 17 0 21 -6 4 -6 3 -8 -3 -5 -6 4 -13 -3 -16
-14 -4 -16 -2 -19 10 -15 14 6 14 4 2 -11 -13 -15 -12 -16 10 -10 17 4 21 3
13 -5 -12 -12 5 -61 18 -53 4 3 7 -3 6 -13 0 -9 4 -16 10 -15 7 1 10 -6 7 -16
-3 -10 0 -22 6 -25 7 -5 9 0 5 11 -4 15 -3 14 7 -2 7 -11 14 -27 14 -35 3 -24
24 -66 25 -50 0 13 2 13 9 0 6 -8 7 -18 5 -22 -3 -4 2 -8 11 -8 10 0 13 -5 9
-12 -5 -7 -2 -9 9 -5 12 4 15 1 12 -14 -2 -11 0 -17 6 -14 5 4 9 1 9 -5 0 -6
5 -8 12 -4 6 4 8 3 4 -4 -3 -6 0 -17 8 -25 8 -8 12 -17 9 -21 -4 -3 5 -6 18
-6 19 0 21 -2 9 -10 -13 -8 -13 -10 2 -10 10 0 18 -9 20 -22 2 -16 9 -22 21
-20 13 2 17 -2 15 -15 -2 -10 3 -18 10 -19 6 -1 17 -2 23 -3 5 0 7 -5 4 -11
-5 -9 15 -15 38 -11 4 0 7 -3 7 -8 0 -5 6 -11 13 -14 6 -2 4 -3 -5 -2 -10 2
-21 -2 -25 -7 -4 -7 -1 -8 7 -3 10 6 12 4 7 -8 -3 -9 -1 -19 5 -23 6 -4 8 -3
4 4 -3 6 -2 13 3 16 5 4 8 -2 7 -11 -2 -10 -6 -16 -11 -15 -4 2 -12 -2 -16
-10 -7 -10 -9 -9 -9 3 0 12 -8 16 -24 15 -20 -1 -22 -4 -13 -15 10 -12 9 -14
-5 -8 -10 3 -18 2 -18 -3 0 -6 -11 -10 -25 -10 -14 0 -25 -4 -25 -9 0 -6 -9
-8 -21 -6 -16 3 -18 1 -10 -8 7 -9 5 -13 -9 -13 -10 0 -16 4 -14 8 3 4 -2 5
-10 2 -9 -3 -16 -10 -16 -15 0 -4 -7 -5 -17 -2 -12 5 -14 3 -8 -8 7 -11 5 -11
-10 1 -10 8 -16 11 -13 5 3 -5 0 -16 -8 -23 -8 -7 -14 -8 -14 -2 0 5 -4 10
-10 10 -5 0 -10 -7 -10 -16 0 -14 -2 -15 -17 -3 -12 10 -14 10 -9 1 4 -7 0
-15 -11 -19 -10 -4 -21 -11 -25 -17 -5 -8 -8 -7 -8 1 0 7 8 17 18 22 9 6 12
11 5 11 -6 0 -15 -5 -18 -10 -4 -6 -11 -7 -17 -4 -7 5 -8 2 -4 -5 12 -19 -25
-42 -43 -28 -12 10 -13 9 -6 -2 6 -11 3 -13 -14 -8 -18 4 -20 3 -10 -9 10 -12
9 -13 -6 -8 -13 5 -16 4 -11 -5 4 -6 4 -11 -1 -10 -20 3 -52 -14 -46 -25 4 -6
0 -6 -9 2 -13 11 -19 8 -37 -20 -11 -18 -21 -28 -21 -22 0 5 6 16 13 23 10 10
9 11 -5 6 -10 -4 -18 -11 -18 -17 0 -5 -4 -6 -10 -3 -5 3 -10 1 -10 -4 0 -19
-38 -51 -44 -38 -5 9 -7 9 -12 0 -3 -8 -16 -11 -32 -8 -23 5 -24 4 -7 -4 20
-10 20 -10 -1 -16 -12 -4 -27 -16 -33 -28 -7 -13 -9 -14 -7 -4 3 9 1 17 -4 17
-9 0 -14 -15 -11 -33 1 -4 -8 -3 -19 3 -15 8 -18 8 -14 -3 3 -9 -3 -17 -16
-20 -11 -3 -20 -9 -19 -14 3 -20 -2 -27 -11 -13 -8 13 -10 12 -10 -2 0 -10 -5
-18 -11 -18 -5 0 -7 -6 -3 -12 6 -9 3 -9 -9 0 -14 12 -16 11 -12 -6 3 -15 -2
-19 -21 -16 -22 2 -23 0 -12 -14 7 -9 8 -14 4 -10 -5 4 -19 -6 -32 -23 -15
-20 -24 -26 -27 -17 -4 8 -6 7 -6 -4 -1 -10 -6 -18 -12 -18 -5 0 -7 -5 -3 -12
5 -7 3 -8 -6 -3 -10 6 -12 4 -7 -9 4 -9 3 -15 -2 -12 -5 3 -14 -1 -21 -9 -7
-8 -16 -12 -21 -9 -5 3 -8 0 -7 -8 2 -7 -3 -12 -11 -10 -12 3 -12 0 -1 -13 11
-13 10 -14 -5 -8 -14 5 -17 3 -12 -10 3 -9 2 -19 -4 -22 -5 -4 -6 -11 -3 -17
5 -7 2 -8 -6 -3 -10 6 -12 3 -8 -13 4 -16 2 -20 -13 -17 -13 3 -16 -1 -12 -12
5 -12 3 -14 -8 -8 -12 7 -12 6 -1 -7 10 -13 10 -17 -3 -22 -9 -3 -14 -10 -10
-15 3 -5 1 -13 -5 -16 -8 -5 -7 -12 2 -23 11 -13 11 -14 0 -8 -11 6 -13 1 -10
-25 2 -22 -2 -34 -12 -36 -13 -4 -13 -3 0 7 13 10 13 11 0 7 -10 -2 -14 -14
-12 -34 2 -18 -3 -37 -12 -46 -13 -13 -13 -16 -1 -21 9 -3 13 -17 11 -41 -3
-24 1 -38 13 -46 14 -9 14 -10 -1 -5 -13 4 -18 0 -18 -14 0 -10 8 -24 18 -29
16 -10 16 -10 -2 -11 -16 0 -16 -2 5 -20 24 -20 24 -20 4 -36 -14 -11 -15 -15
-5 -14 30 4 38 0 33 -20 -3 -13 0 -20 8 -20 12 0 12 -2 1 -9 -11 -7 -10 -9 3
-14 9 -4 13 -3 10 2 -3 5 -1 12 5 16 6 4 10 -5 10 -22 0 -22 2 -25 10 -13 8
13 10 12 10 -4 0 -14 5 -17 21 -13 16 4 18 3 9 -8 -9 -11 -6 -13 15 -11 15 2
29 -3 35 -13 8 -13 9 -14 10 -1 0 12 2 12 9 2 4 -8 11 -13 15 -13 3 1 7 1 9 0
1 0 15 -2 30 -4 25 -3 27 -2 15 12 -12 15 -11 15 9 3 17 -11 25 -11 36 -2 11
10 20 9 42 -2 24 -13 30 -13 42 0 13 12 16 12 29 -1 17 -17 28 -20 19 -5 -3 5
1 10 9 10 9 0 16 5 16 11 0 8 5 8 15 -1 8 -7 16 -10 16 -6 1 3 3 11 4 16 1 6
3 15 4 21 0 5 5 8 11 4 5 -3 7 -13 4 -23 -2 -9 1 -7 7 5 7 13 16 23 21 23 5 0
6 -6 3 -13 -4 -6 2 -1 13 12 10 13 24 21 30 17 6 -3 14 -1 18 5 5 8 3 9 -6 4
-9 -5 -11 -4 -6 4 6 9 11 9 24 -1 12 -10 14 -10 8 0 -4 7 -2 12 8 12 8 0 18 5
22 12 5 7 3 8 -5 3 -10 -5 -10 -3 0 13 11 17 15 18 26 6 19 -18 21 -18 19 4
-1 12 5 16 22 14 12 -2 22 2 22 8 0 6 5 8 12 4 9 -5 8 -2 -1 9 -13 16 -12 17
12 8 15 -6 26 -7 26 -3 -1 4 -1 15 0 25 1 20 21 23 21 3 0 -20 17 -29 26 -15
4 8 3 9 -4 5 -7 -4 -12 -1 -12 8 0 8 5 18 10 21 6 4 7 11 4 17 -4 6 -2 8 3 5
27 -17 -6 -95 -41 -97 -5 0 -6 -3 -3 -6 4 -4 13 -1 21 5 11 9 16 9 22 0 5 -8
3 -9 -6 -4 -10 6 -12 4 -6 -11 4 -10 4 -16 1 -12 -4 3 -15 -1 -25 -10 -16 -13
-17 -19 -7 -31 10 -12 9 -13 -2 -6 -11 6 -13 4 -7 -10 5 -15 4 -16 -9 -5 -13
11 -14 10 -9 -5 5 -11 3 -16 -2 -12 -6 3 -11 -8 -12 -24 -2 -21 1 -28 9 -23 8
4 9 3 5 -5 -4 -6 -11 -9 -15 -6 -5 2 -11 -9 -15 -26 -3 -17 -10 -28 -15 -24
-5 3 -13 0 -17 -6 -4 -7 -3 -9 4 -5 14 8 25 -11 15 -26 -10 -17 -10 -42 0 -49
5 -3 1 -9 -8 -12 -11 -5 -14 -3 -9 6 5 9 4 9 -6 0 -12 -11 -11 -16 6 -29 10
-8 13 -13 7 -9 -7 3 -14 1 -14 -4 -1 -6 -3 -15 -4 -21 -1 -5 -3 -17 -4 -26 0
-9 -6 -12 -13 -8 -7 4 -8 3 -4 -4 4 -7 9 -22 11 -34 3 -13 9 -24 15 -26 5 -2
10 -8 10 -14 0 -6 -8 -4 -18 5 -16 15 -19 15 -19 2 0 -8 5 -15 10 -15 5 0 4
-6 -2 -14 -8 -10 -9 -16 -1 -21 5 -3 10 -1 10 5 0 6 5 8 10 5 6 -4 1 -15 -12
-26 -13 -12 -17 -18 -10 -14 12 6 16 -6 13 -33 -1 -8 4 -21 11 -30 7 -9 8 -13
2 -9 -7 4 -14 -1 -17 -12 -3 -12 1 -18 12 -17 9 0 15 -5 13 -13 -2 -8 3 -18
10 -23 10 -7 10 -9 -2 -5 -8 2 -14 12 -13 22 1 12 -2 14 -10 6 -7 -7 -7 -14 1
-23 5 -7 10 -17 10 -23 0 -5 6 -11 14 -13 9 -2 8 0 -2 7 -8 6 -10 11 -4 11 16
0 23 -10 17 -26 -3 -8 -10 -11 -17 -7 -6 4 -5 -1 3 -10 7 -9 22 -17 32 -17 11
0 19 -4 19 -10 0 -5 -6 -8 -12 -6 -7 1 -10 1 -5 -1 4 -3 4 -10 1 -15 -4 -6 -3
-8 3 -5 6 4 19 0 29 -8 19 -15 19 -15 -1 -8 -17 6 -18 5 -5 -9 8 -9 18 -14 23
-11 6 4 11 -12 8 -29 -2 -12 6 -9 25 10 17 16 18 16 11 -1 -4 -11 -1 -20 8
-23 8 -4 13 -9 10 -13 -2 -4 2 -8 10 -8 8 0 11 5 8 11 -4 6 1 5 10 -3 9 -7 26
-11 37 -8 10 3 19 2 18 -2 -3 -27 4 -29 46 -11 33 14 47 16 56 7 10 -10 11 -8
6 8 -6 16 -5 18 6 7 10 -10 10 -17 1 -31 -10 -15 -9 -19 2 -17 8 1 18 6 22 11
4 4 2 5 -6 0 -10 -5 -12 -4 -7 4 4 6 12 9 17 6 12 -8 12 -11 -7 -29 -8 -9 -11
-16 -5 -16 6 0 11 -7 11 -16 0 -9 -5 -12 -12 -8 -10 6 -10 5 -1 -7 10 -12 10
-18 0 -29 -9 -10 -9 -11 1 -6 6 4 12 3 12 -3 0 -5 -6 -12 -12 -14 -10 -4 -9
-8 2 -16 13 -10 13 -11 0 -11 -13 0 -13 -1 0 -10 13 -9 13 -11 0 -20 -11 -7
-11 -10 -2 -10 9 0 10 -5 4 -17 -5 -10 -8 -33 -6 -51 2 -22 -1 -30 -9 -25 -7
3 1 -7 16 -22 28 -28 28 -30 9 -38 -20 -9 -20 -10 -1 -30 22 -24 17 -36 -8
-16 -16 12 -17 12 -6 -2 7 -9 10 -19 6 -22 -3 -4 2 -7 13 -8 15 -1 13 -3 -6
-9 -18 -6 -20 -8 -7 -9 10 -1 15 -6 12 -11 -4 -6 -11 -7 -17 -4 -7 4 -8 2 -4
-5 4 -6 12 -8 18 -5 7 5 9 1 5 -9 -3 -9 -1 -17 5 -19 6 -2 11 -16 11 -31 0
-15 3 -24 8 -21 5 3 9 0 9 -5 0 -6 -6 -11 -12 -11 -10 0 -9 -3 1 -9 11 -7 11
-9 0 -14 -10 -4 -10 -6 -1 -6 6 -1 12 -7 12 -15 0 -8 5 -16 11 -18 9 -3 9 -10
0 -28 l-12 -25 21 25 21 25 -11 -24 c-10 -20 -10 -25 4 -33 12 -7 14 -14 6
-28 -7 -13 -7 -21 1 -25 6 -4 8 -14 4 -22 -4 -13 -3 -14 10 -3 13 11 14 10 9
-4 -3 -9 -1 -16 5 -16 6 0 11 5 11 12 0 6 3 8 7 4 5 -4 0 -13 -10 -21 -16 -12
-16 -13 3 -18 11 -3 20 -10 20 -17 0 -6 -5 -8 -12 -4 -7 4 -8 3 -4 -4 4 -6 14
-8 23 -5 13 5 15 2 11 -15 -4 -12 -1 -25 4 -29 6 -3 8 -1 5 4 -4 6 0 16 7 22
12 10 13 8 9 -8 -3 -13 -1 -21 6 -21 7 0 10 -4 6 -9 -3 -5 10 -15 29 -22 25
-9 33 -17 31 -32 -3 -14 -1 -16 8 -8 9 7 16 5 24 -8 12 -19 59 -25 69 -9 3 5
11 4 19 -2 8 -7 19 -9 24 -6 5 4 12 2 15 -3 4 -5 -5 -8 -19 -6 -14 1 -28 -1
-30 -5 -3 -4 15 -7 40 -5 29 1 42 -1 38 -8 -3 -5 -1 -7 5 -3 5 3 12 3 15 -1 2
-5 2 -2 1 5 -2 6 4 12 12 12 9 0 12 -5 8 -12 -4 -7 2 -5 14 6 12 10 28 16 36
13 11 -4 13 -1 9 10 -5 12 -2 15 10 10 12 -4 14 -2 10 10 -4 10 -2 14 4 10 6
-4 14 0 17 9 3 8 10 12 16 9 6 -4 7 1 3 11 -3 10 -2 15 3 12 5 -3 14 0 21 7
10 11 10 15 0 19 -7 4 -1 4 11 2 13 -3 21 -2 18 1 -3 4 0 13 7 22 11 14 10 14
-5 2 -10 -7 -18 -9 -18 -3 0 12 29 24 41 17 5 -4 6 1 3 9 -3 9 -11 13 -17 9
-6 -4 -7 -1 -3 6 5 7 14 10 21 7 10 -3 12 2 9 20 -3 18 -1 23 7 18 9 -5 10 -2
6 9 -4 11 -1 17 8 17 8 0 15 5 15 11 0 5 -5 7 -11 3 -8 -4 -8 0 0 15 7 11 16
21 21 21 6 0 10 5 10 11 0 5 -4 7 -10 4 -5 -3 -10 -1 -10 4 0 6 7 11 16 11 8
0 12 5 9 10 -4 6 -12 8 -18 4 -7 -3 -1 4 13 16 14 12 20 19 13 16 -6 -4 -14
-2 -18 4 -3 5 -1 10 6 10 6 0 9 8 6 20 -3 11 -2 18 2 16 3 -2 15 3 26 11 16
13 17 15 3 10 -10 -4 -18 -2 -18 3 0 6 8 10 18 10 13 0 14 2 3 9 -11 7 -11 14
2 40 14 28 14 32 -1 41 -14 8 -14 10 -2 11 8 1 17 1 20 1 3 0 6 8 6 19 0 11
-5 17 -11 15 -5 -2 -9 -9 -7 -15 1 -7 -2 -9 -8 -6 -8 5 -6 13 6 26 9 10 20 16
25 14 4 -3 10 -1 13 4 4 5 1 13 -5 17 -8 5 -9 3 -4 -7 5 -8 4 -10 0 -6 -12 10
-16 39 -5 32 5 -3 12 0 16 6 4 8 3 9 -4 5 -7 -4 -12 -2 -12 4 0 6 -4 9 -8 6
-5 -3 -9 1 -9 9 0 10 4 12 12 5 17 -14 27 0 13 17 -9 11 -9 17 3 25 11 8 11 9
-3 4 -10 -3 -20 0 -24 6 -4 6 -3 9 2 6 5 -3 15 0 22 8 7 8 8 14 2 14 -5 0 -10
7 -10 16 0 8 4 13 8 10 5 -3 8 8 8 25 0 16 -4 29 -10 29 -5 0 -1 7 10 16 10 8
14 13 7 10 -6 -4 -14 -2 -17 3 -4 5 1 11 11 13 15 3 15 4 -1 20 -17 17 -16 18
3 18 12 0 21 5 21 11 0 5 -4 7 -10 4 -5 -3 -10 3 -10 14 0 12 5 21 12 21 6 0
4 6 -7 13 -13 10 -15 16 -6 21 6 4 8 12 5 18 -4 7 -2 8 5 4 9 -6 9 -11 0 -22
-8 -10 -8 -14 0 -14 11 0 15 13 12 37 -1 6 3 14 9 18 6 4 3 16 -8 33 -9 14
-11 23 -4 19 7 -5 12 -3 12 7 0 9 8 16 18 16 14 0 15 2 2 10 -13 8 -13 10 1
10 9 0 20 7 23 16 4 10 2 13 -7 9 -6 -4 -4 0 5 8 10 8 14 18 10 22 -4 5 0 6 9
2 13 -4 16 -1 11 15 -4 16 -2 19 9 13 11 -6 12 -5 2 6 -7 7 -13 18 -13 24 0 5
5 3 10 -5 8 -13 10 -13 10 2 0 9 5 20 11 24 8 4 9 -1 4 -17 -7 -21 -6 -22 7
-11 13 10 17 10 22 -4 3 -9 4 -19 1 -24 -2 -4 8 -20 23 -36 15 -15 22 -24 15
-21 -6 4 -14 3 -18 -3 -3 -5 -1 -10 6 -10 9 0 9 -3 0 -14 -7 -8 -8 -16 -4 -19
10 -6 9 -106 -2 -130 -4 -10 -2 -24 6 -34 12 -15 12 -16 -3 -11 -11 5 -15 2
-13 -10 1 -9 -3 -21 -9 -25 -7 -6 -4 -7 6 -3 10 3 20 0 24 -6 4 -7 3 -8 -4 -4
-7 4 -12 3 -12 -3 0 -5 -3 -17 -7 -27 -5 -13 -3 -15 8 -9 11 6 12 5 2 -6 -19
-20 -16 -33 5 -18 15 12 16 12 5 -2 -7 -9 -10 -18 -7 -22 3 -3 -3 -3 -14 0
-11 2 -22 0 -26 -5 -3 -5 2 -9 11 -8 10 0 19 -7 21 -18 2 -10 0 -16 -5 -13 -5
3 -15 -4 -22 -16 -11 -18 -11 -20 0 -9 17 16 37 16 21 0 -7 -7 -12 -19 -12
-28 0 -13 1 -13 10 0 5 8 10 10 10 5 0 -6 -5 -16 -12 -23 -9 -9 -9 -12 0 -12
7 0 12 -5 12 -11 0 -5 -4 -8 -9 -5 -15 10 -7 -34 9 -45 12 -8 9 -10 -10 -5
-21 4 -22 3 -10 -7 18 -15 24 -43 10 -52 -15 -9 -12 -28 3 -19 6 4 3 -3 -7
-15 -20 -22 -20 -22 0 -15 17 7 17 6 5 -9 -11 -14 -11 -17 0 -18 8 0 5 -4 -6
-9 l-20 -9 20 0 c17 -1 17 -3 5 -11 -12 -8 -10 -10 10 -11 23 0 23 -1 5 -9
-12 -5 -14 -9 -6 -9 8 -1 11 -4 8 -8 -4 -3 -2 -12 4 -20 14 -17 -2 -17 -20 0
-11 9 -10 7 0 -10 8 -13 17 -23 21 -23 5 0 8 -5 8 -11 0 -5 -6 -7 -12 -3 -7 4
-4 -3 7 -16 11 -13 15 -20 8 -17 -6 4 -15 3 -18 -3 -4 -6 -1 -9 7 -8 8 2 13
-7 12 -24 0 -15 3 -25 7 -23 3 3 7 -7 8 -20 3 -48 4 -54 13 -49 5 3 5 10 2 16
-4 6 -3 8 3 5 5 -3 8 -20 5 -38 -3 -20 -1 -30 6 -25 15 9 25 -26 10 -37 -9 -6
-6 -7 10 -4 18 4 21 3 12 -8 -8 -10 -4 -14 16 -19 25 -7 26 -8 8 -21 -18 -13
-18 -14 -1 -15 9 0 17 -5 17 -11 0 -5 6 -7 13 -3 7 5 6 0 -3 -11 -9 -11 -10
-16 -2 -11 6 4 12 3 12 -3 0 -5 9 -13 20 -16 11 -3 20 -14 21 -23 0 -14 2 -13
9 3 8 18 9 18 10 -5 1 -23 2 -23 10 -5 5 11 9 14 9 7 1 -16 31 -48 31 -33 0 6
5 11 11 11 5 0 8 -4 5 -8 -3 -5 1 -9 9 -9 8 0 12 3 10 7 -2 4 2 7 10 7 8 0 12
-5 8 -10 -3 -5 7 -6 26 -2 20 4 31 3 31 -5 0 -6 -5 -8 -12 -4 -7 4 -8 3 -4 -4
5 -9 13 -9 26 -2 11 6 23 10 27 9 22 -4 43 2 43 12 0 5 -5 7 -12 3 -6 -4 -8
-3 -4 4 4 7 17 8 36 2 29 -8 29 -8 18 13 -10 20 -10 21 5 8 15 -12 17 -11 17
5 0 14 2 16 9 6 6 -11 11 -10 25 3 9 9 14 20 11 25 -3 4 2 11 11 14 10 4 13 2
8 -6 -4 -7 -3 -8 4 -4 7 4 12 16 12 26 0 10 5 22 12 26 8 5 9 1 5 -12 -7 -18
-6 -18 6 -2 8 10 18 14 22 10 4 -4 2 3 -4 16 -12 22 -11 23 9 12 20 -11 21
-10 10 10 -10 18 -9 21 1 15 9 -6 10 -3 5 10 -5 15 -4 16 9 5 12 -10 16 -9 21
4 3 9 11 13 16 10 6 -4 5 3 -1 15 -10 18 -9 20 6 14 15 -6 16 -4 6 9 -11 12
-10 18 5 32 10 9 22 14 25 11 4 -3 5 -2 2 2 -3 3 3 12 13 20 14 10 14 12 1 8
-9 -4 -16 0 -16 9 0 8 6 12 15 8 11 -4 14 -1 9 11 -3 9 5 31 19 52 13 20 19
33 12 29 -10 -6 -11 -4 0 7 15 16 16 33 0 23 -7 -4 -8 -3 -4 4 4 7 15 12 24
12 10 0 13 3 7 8 -17 12 -17 35 -1 29 10 -4 13 -1 9 9 -3 7 -9 14 -14 14 -5 0
-9 5 -9 12 0 9 3 9 12 0 17 -17 24 -15 25 10 2 18 0 20 -8 8 -7 -11 -8 -7 -5
14 6 33 13 43 23 32 4 -4 2 -11 -6 -15 -10 -7 -10 -9 1 -13 10 -4 14 5 15 33
1 22 -3 39 -8 39 -6 0 -7 5 -4 10 4 6 10 8 15 5 7 -4 5 45 -5 88 -2 14 1 17
12 13 13 -5 14 -4 3 9 -8 10 -9 15 -1 15 6 0 11 5 11 11 0 5 -4 7 -10 4 -6 -3
-7 1 -4 9 3 9 1 16 -5 16 -6 0 -11 4 -11 10 0 5 8 7 18 3 9 -3 14 -3 10 2 -4
4 -3 14 4 22 9 11 7 12 -8 7 -17 -5 -17 -4 -4 8 15 13 26 63 12 55 -4 -3 -7 5
-7 18 0 16 5 21 15 17 8 -3 12 -2 8 3 -4 4 -2 15 5 23 8 11 9 14 0 9 -9 -6
-10 2 -6 29 5 30 3 36 -8 29 -8 -5 -3 4 11 20 14 16 20 25 14 22 -13 -8 -27
30 -14 38 12 7 60 -16 60 -29 0 -6 5 -4 10 4 5 8 10 10 10 4 0 -7 7 -15 16
-18 13 -5 14 -4 6 7 -9 11 -8 13 6 12 9 0 23 -4 30 -9 6 -4 18 -4 25 0 9 5 9
4 0 -6 -10 -11 -15 -11 -28 0 -10 8 -15 9 -15 1 0 -12 1 -12 38 -16 14 -1 22
3 22 14 1 13 3 13 15 -3 8 -11 15 -14 15 -7 0 7 5 9 12 5 7 -4 8 -3 4 5 -4 6
-12 8 -18 5 -7 -4 -8 -2 -4 4 5 9 13 9 28 1 15 -8 19 -8 14 0 -4 6 0 11 9 11
10 0 13 -5 9 -12 -4 -6 -3 -8 4 -4 6 3 9 15 7 26 -2 12 0 18 5 15 4 -3 11 1
14 7 3 7 3 2 0 -12 l-6 -25 16 22 c9 12 16 26 15 30 -3 20 2 25 16 13 12 -10
13 -8 10 10 -3 17 0 20 12 16 13 -5 14 -4 4 8 -9 11 -9 16 0 22 8 5 9 3 4 -6
-6 -9 -4 -11 4 -6 7 5 10 15 7 23 -3 8 -1 11 4 8 6 -4 8 6 6 23 -2 19 2 29 10
29 7 0 11 -4 8 -8 -2 -4 1 -11 7 -15 7 -4 9 -3 5 4 -3 6 -2 13 3 17 6 3 8 12
4 21 -3 8 3 24 13 36 19 21 19 21 -3 9 -27 -14 -45 -14 -20 0 9 5 17 17 17 24
0 8 5 15 12 15 6 0 3 7 -8 16 -18 14 -18 15 6 8 22 -6 23 -5 12 9 -10 12 -10
16 0 20 10 4 10 6 -1 6 -11 1 -11 4 -1 16 9 10 9 15 1 15 -6 0 -11 5 -11 11 0
6 8 8 18 5 14 -5 14 -4 -2 9 -11 8 -14 15 -8 15 7 0 12 7 12 16 0 8 -4 13 -9
9 -5 -3 -13 0 -17 6 -4 7 -3 9 4 5 6 -3 13 -2 17 4 3 5 -2 10 -12 11 -16 0
-16 1 2 9 17 7 18 9 4 14 -9 4 -16 13 -16 21 0 8 4 12 9 9 15 -10 8 9 -9 21
-13 9 -13 14 -3 20 9 5 11 4 6 -3 -4 -7 -2 -12 4 -12 11 0 8 15 -8 59 -3 9 -1
12 6 7 8 -5 10 -2 6 8 -5 14 -16 20 -35 18 -3 -1 -6 6 -6 13 0 11 4 12 14 3 7
-6 16 -8 20 -4 3 3 1 6 -6 6 -7 0 -11 6 -8 14 4 11 0 14 -16 11 -21 -4 -21 -4
-3 10 11 8 14 15 8 15 -7 0 -12 5 -12 11 0 5 5 7 12 3 7 -4 8 -3 4 4 -4 7 -15
12 -24 13 -13 0 -13 2 -3 6 10 4 8 9 -10 20 -13 8 -16 12 -7 9 10 -3 20 0 24
7 4 7 4 9 -1 5 -4 -4 -14 -1 -21 7 -15 15 -19 29 -6 21 5 -3 9 1 9 9 0 8 -4
12 -9 9 -7 -5 -12 10 -9 29 2 11 -13 8 -29 -5 -12 -11 -12 -10 -2 3 6 9 8 20
4 24 -4 5 -1 5 6 1 6 -4 12 -2 12 3 0 6 -8 11 -17 12 -15 0 -15 2 2 9 17 7 17
9 3 9 -10 1 -18 6 -18 12 0 5 -6 7 -12 3 -10 -5 -10 -4 -1 6 6 7 9 19 6 26 -3
8 0 14 7 14 6 0 8 5 4 12 -4 7 -3 8 5 4 8 -6 9 -12 2 -20 -8 -9 -6 -12 7 -11
9 0 22 4 27 7 12 7 37 -17 27 -26 -3 -4 1 -4 11 0 9 3 14 11 10 17 -3 6 -1 7
6 3 6 -4 9 -11 6 -16 -3 -5 -1 -11 5 -15 5 -3 10 1 10 9 0 8 4 17 9 20 5 4 7
-2 4 -13 -3 -10 0 -22 6 -25 7 -5 9 0 5 11 -5 16 -4 16 10 -1 12 -15 16 -16
16 -5 0 12 2 12 9 -1 6 -8 7 -18 4 -24 -3 -5 -1 -6 5 -2 6 4 9 14 6 24 -4 10
-2 13 3 7 17 -20 52 -35 58 -24 5 7 11 6 20 -1 10 -8 14 -7 18 2 4 9 6 8 6 -3
1 -19 39 -18 52 2 6 10 8 5 5 -17 -2 -19 2 -31 9 -31 7 0 10 9 7 21 -5 19 -3
19 17 -4 12 -14 20 -20 17 -13 -4 6 -2 14 4 18 5 3 10 -1 10 -10 0 -9 5 -13
10 -10 6 4 8 10 6 13 -5 9 41 8 50 -1 3 -3 13 -3 22 0 9 4 13 2 9 -4 -3 -5 0
-10 8 -10 8 0 12 4 9 9 -3 4 7 8 22 8 24 0 25 2 13 17 -12 15 -12 16 1 8 20
-13 41 -15 35 -5 -3 5 -1 11 5 15 5 3 10 1 10 -4 0 -6 5 -11 11 -11 5 0 7 4 4
10 -3 6 1 10 10 10 9 0 14 4 10 9 -3 6 3 8 14 6 15 -3 18 0 14 12 -5 13 -2 15
15 11 12 -3 21 -3 20 1 -3 25 3 41 15 35 7 -5 6 0 -3 11 -13 17 -13 18 1 13
13 -5 16 -2 12 13 -3 10 -1 19 5 19 6 0 9 9 7 20 -2 11 0 18 5 15 5 -3 11 -1
15 5 3 5 2 10 -3 10 -5 0 -9 7 -9 15 0 8 4 15 9 15 5 0 3 6 -5 14 -13 14 -14
69 -2 103 2 7 -2 10 -12 6 -13 -5 -14 -3 -4 15 13 24 3 29 -19 10 -12 -11 -12
-10 -2 3 6 9 8 20 4 24 -4 5 0 5 8 1 9 -5 8 -2 -2 7 -10 8 -14 18 -10 22 4 5
-2 5 -13 1 -16 -6 -18 -5 -7 5 14 15 16 33 3 25 -5 -3 -12 1 -15 10 -3 9 -11
12 -18 8 -10 -6 -11 -5 -1 8 15 18 8 28 -21 29 -12 0 -15 3 -8 6 6 2 12 9 12
14 0 6 -4 7 -10 4 -5 -3 -10 -1 -10 6 0 7 -3 9 -7 6 -9 -10 -36 31 -28 43 4 6
-1 7 -11 3 -13 -5 -15 -3 -9 8 8 12 6 12 -8 0 -20 -16 -23 -1 -4 18 10 11 8
11 -13 1 -23 -12 -24 -12 -11 4 12 14 12 16 -3 10 -12 -5 -15 -2 -10 10 4 11
2 15 -8 11 -8 -3 -21 2 -29 11 -8 10 -9 15 -2 11 6 -4 15 -3 18 3 4 6 3 9 -2
8 -18 -5 -53 14 -46 25 4 7 -1 6 -10 -2 -15 -11 -17 -11 -17 2 0 8 -7 18 -16
21 -8 3 -12 11 -8 17 4 7 -1 7 -16 -1 -21 -11 -22 -10 -17 9 4 18 3 20 -9 10
-11 -9 -15 -8 -20 5 -3 9 -17 16 -30 16 -13 0 -24 5 -24 10 0 6 -5 10 -11 10
-5 0 -7 -5 -3 -12 4 -7 3 -8 -5 -4 -9 6 -9 11 -1 21 8 10 6 13 -7 11 -10 0
-17 5 -15 12 2 10 -2 10 -18 2 -16 -9 -20 -8 -21 7 0 10 -3 13 -6 6 -3 -9 -14
-8 -43 7 -20 10 -41 16 -45 12 -3 -4 -5 -1 -3 7 2 7 -3 16 -11 19 -8 3 -11 0
-7 -7 5 -7 1 -9 -10 -4 -15 6 -15 7 2 20 18 13 17 14 -8 8 -19 -5 -28 -3 -28
5 0 6 -5 8 -12 4 -8 -5 -9 -1 -5 12 7 18 7 18 -8 0 -14 -19 -15 -19 -15 -1 0
10 -3 15 -7 12 -3 -4 -12 1 -20 11 -8 9 -12 11 -8 5 8 -16 -7 -17 -23 -1 -13
13 -45 21 -37 9 2 -4 -2 -8 -9 -8 -9 0 -12 7 -8 15 4 11 1 14 -11 9 -12 -4
-17 -1 -17 11 0 13 -2 14 -9 3 -7 -11 -9 -11 -14 0 -4 11 -6 11 -6 1 -1 -10
-4 -10 -15 0 -8 7 -12 17 -9 21 3 5 -4 4 -16 -2 -13 -7 -21 -8 -21 -2 0 6 -10
19 -21 30 -18 16 -26 18 -42 9 -16 -8 -19 -8 -14 5 3 8 0 18 -8 21 -9 3 -12 0
-8 -10 3 -7 0 -14 -6 -14 -6 0 -11 8 -11 18 0 13 -2 14 -9 3 -7 -11 -9 -11
-14 0 -5 12 -7 12 -15 0 -8 -11 -11 -10 -16 7 -5 14 -13 19 -26 17 -14 -3 -20
2 -20 15 0 10 -6 21 -12 23 -8 3 -5 6 5 6 12 1 16 5 11 14 -5 8 -2 8 9 -2 14
-11 20 -11 32 -1 8 7 12 16 9 21 -3 5 2 6 11 3 10 -4 15 -2 13 7 -2 8 3 13 10
11 6 -1 12 6 12 15 0 15 2 16 10 3 9 -13 10 -13 11 0 1 8 1 19 0 24 -1 5 5 3
14 -4 8 -7 18 -10 22 -6 3 3 1 6 -6 6 -7 0 -9 5 -6 10 4 6 10 8 15 5 4 -3 13
2 20 10 11 13 10 15 -6 9 -17 -5 -17 -4 -3 5 9 6 25 12 35 14 24 3 32 13 20
24 -5 4 -7 3 -3 -3 3 -6 0 -11 -8 -11 -13 0 -12 4 2 19 18 20 28 24 17 7 -4
-7 -1 -10 7 -7 8 3 13 11 11 17 -1 6 5 11 14 11 10 0 14 6 11 14 -4 10 0 14
12 11 14 -3 18 2 15 18 -2 12 -1 16 2 9 5 -10 10 -7 18 10 6 12 18 23 26 23 9
0 15 9 14 23 -1 13 1 20 4 17 3 -2 12 1 21 7 13 10 14 10 4 -2 -7 -8 -13 -18
-13 -24 0 -5 6 -1 14 10 10 12 11 23 5 31 -7 7 -6 13 0 17 5 4 12 2 16 -4 3
-5 11 -10 16 -10 6 0 3 7 -5 16 -19 19 -21 31 -3 15 17 -13 28 -4 20 17 -5 12
-2 14 11 9 9 -4 15 -3 12 1 -3 5 2 20 12 33 18 27 25 52 11 43 -5 -3 -9 0 -9
5 0 6 6 11 14 11 8 0 18 5 22 12 4 6 3 8 -4 4 -14 -9 -9 41 6 56 7 7 12 23 12
36 0 13 4 21 9 17 5 -3 13 0 17 6 4 7 3 9 -3 6 -6 -4 -13 2 -16 14 -5 17 -3
18 10 7 15 -12 15 -10 3 12 -12 22 -11 23 2 13 12 -11 14 -7 11 24 -1 21 -5
44 -8 53 -3 9 1 7 11 -5 l17 -20 -8 20 c-17 49 -16 65 7 75 20 7 12 14 -13 12
-3 -1 -6 5 -6 13 0 8 3 12 7 10 3 -2 12 0 20 6 12 7 11 9 -4 9 -20 0 -20 0 0
16 10 8 13 13 7 9 -7 -3 -13 -3 -14 2 0 4 -2 18 -3 30 -1 12 1 20 5 17 4 -2
10 0 14 6 3 5 0 10 -7 10 -9 0 -9 3 2 10 10 6 11 10 3 10 -7 0 -13 5 -13 11 0
5 6 7 13 3 10 -6 10 -4 0 7 -19 20 -16 33 5 18 15 -13 16 -12 4 3 -9 12 -10
18 -2 23 8 5 5 13 -8 26 -20 18 -20 65 0 53 6 -4 6 2 -1 13 -6 11 -7 23 -4 27
3 3 1 7 -5 7 -27 3 -31 4 -39 13 -4 5 -3 6 3 3 7 -4 15 0 18 9 3 8 2 13 -3 10
-5 -3 -12 1 -15 10 -3 8 -2 12 4 9 6 -3 10 -1 10 4 0 6 -4 11 -10 11 -5 0 -10
5 -10 11 0 5 6 7 13 3 8 -6 8 -3 -1 9 -8 9 -11 20 -8 25 3 6 -2 16 -12 23 -15
13 -16 12 -3 -3 7 -10 9 -18 5 -18 -5 0 -15 9 -22 21 -8 12 -9 18 -3 14 6 -3
11 1 11 9 0 9 -6 16 -12 16 -9 0 -8 4 2 10 11 7 11 10 2 10 -7 0 -10 4 -7 10
3 5 0 7 -8 4 -10 -3 -14 2 -13 18 1 14 8 24 21 27 11 2 23 8 27 15 6 8 8 7 8
-1 0 -7 5 -13 11 -13 6 0 9 7 5 15 -5 13 -2 14 15 4 12 -6 19 -7 15 -1 -3 5 3
12 15 15 16 4 18 3 9 -8 -8 -10 -8 -15 1 -21 8 -5 9 -3 4 6 -6 10 -3 12 13 8
13 -4 26 0 34 11 11 14 11 14 -4 3 -12 -10 -18 -10 -24 -1 -4 7 -3 9 4 5 6 -3
14 -2 17 4 5 8 11 8 20 0 10 -8 19 -5 38 16 17 18 27 22 32 14 5 -8 12 -7 26
6 10 9 16 21 12 27 -4 6 0 8 11 4 10 -4 24 0 34 9 15 15 14 16 -8 10 l-25 -7
23 14 c12 7 20 16 16 20 -4 3 3 4 16 2 18 -3 20 -2 10 10 -9 11 -6 17 15 31
18 12 25 23 22 36 -5 17 -3 17 11 6 10 -8 13 -9 9 -1 -4 6 -3 15 3 18 8 5 7
12 -2 23 -10 13 -10 14 0 8 9 -6 11 -1 8 18 -3 15 -1 24 5 21 5 -4 6 -11 3
-17 -4 -7 -2 -8 5 -4 6 4 8 12 5 18 -5 8 -1 9 12 5 19 -7 19 -7 0 8 -19 14
-19 15 -1 35 14 15 15 23 6 34 -9 11 -9 16 0 22 8 4 9 3 5 -4 -14 -23 2 -12
17 11 12 19 13 24 2 24 -8 0 -12 -4 -9 -9 3 -4 0 -8 -6 -8 -7 0 -9 7 -6 16 3
9 6 18 6 20 0 3 6 2 13 -2 6 -4 9 -4 5 1 -4 4 -2 15 5 24 10 14 10 14 -4 3
-14 -10 -18 -10 -23 3 -3 9 -2 14 3 11 14 -9 31 39 19 55 -8 11 -9 11 -5 -3 3
-9 -2 -22 -11 -30 -15 -11 -15 -11 -5 3 10 12 10 18 1 27 -8 8 -9 12 -1 12 12
0 12 18 0 38 -8 11 -2 16 16 13 5 -1 6 3 2 9 -3 5 0 10 7 10 11 0 11 2 0 9
-17 11 -22 43 -9 59 8 10 7 12 -4 10 -8 -2 -12 3 -10 12 7 29 8 69 1 65 -4 -3
-13 2 -20 10 -10 12 -10 18 0 30 7 9 8 15 2 15 -5 0 -13 7 -16 16 -5 12 -2 15
11 10 16 -6 16 -6 0 12 -9 10 -16 21 -15 23 2 2 -3 -3 -10 -11 -11 -13 -12
-11 -6 14 5 22 4 27 -6 21 -10 -6 -11 -4 -4 6 13 21 14 40 1 32 -6 -4 -8 0 -4
9 3 10 -3 24 -16 35 l-22 18 19 -22 c11 -13 16 -23 11 -23 -17 0 -34 35 -23
47 8 10 5 13 -12 13 -18 0 -20 3 -11 13 15 19 1 30 -17 14 -13 -9 -14 -9 -8 1
4 6 3 12 -2 12 -6 0 -8 9 -5 19 3 13 -4 25 -22 37 -14 9 -24 22 -21 29 2 6 -2
12 -10 12 -7 0 -10 -5 -7 -11 3 -6 0 -5 -8 2 -12 11 -12 14 1 22 13 8 12 10
-3 10 -12 0 -16 4 -11 13 5 7 0 6 -11 -3 -11 -9 -16 -10 -11 -2 4 6 2 12 -3
12 -6 0 -11 5 -11 11 0 5 5 7 12 3 6 -4 8 -3 4 4 -3 6 -19 8 -34 6 -22 -4 -25
-3 -14 7 17 18 15 34 -2 20 -11 -9 -14 -8 -12 6 1 12 -5 17 -18 15 -10 -2 -15
1 -11 7 3 7 0 8 -9 5 -11 -4 -16 0 -16 11 0 13 -3 15 -13 6 -14 -11 -27 -5
-27 13 0 6 5 4 11 -4 9 -13 10 -13 6 0 -2 8 -9 16 -15 16 -7 1 -14 3 -17 4
-13 7 -31 5 -42 -3 -9 -7 -15 -2 -22 14 -5 13 -6 28 -3 33 3 5 0 6 -7 2 -6 -4
-9 -10 -7 -14 2 -4 -6 -7 -19 -7 -16 0 -20 4 -14 11 10 13 -26 12 -38 -1 -5
-4 -2 -5 6 0 10 6 12 4 7 -4 -10 -16 -38 6 -30 23 3 6 -2 2 -10 -8 -10 -13
-16 -15 -16 -7 0 11 -3 11 -17 0 -11 -10 -14 -10 -9 -1 4 6 2 12 -3 12 -6 0
-11 -5 -11 -11 0 -6 -7 -3 -16 5 -17 18 -28 21 -19 6 3 -5 1 -10 -4 -10 -6 0
-11 7 -11 16 0 8 -5 12 -10 9 -6 -4 -8 -10 -5 -15 3 -5 0 -12 -6 -16 -8 -4 -9
-3 -5 4 4 7 2 12 -4 12 -6 0 -9 4 -6 8 3 5 -1 9 -9 9 -8 0 -12 -4 -9 -9 3 -4
-2 -8 -11 -8 -10 0 -13 5 -9 12 4 6 3 8 -4 4 -5 -3 -13 0 -16 6 -3 9 -5 8 -3
-2 1 -8 -3 -15 -8 -15 -6 0 -10 5 -10 12 0 6 -4 15 -9 20 -5 5 -6 2 -1 -6z
m510 -151 c-3 -5 -12 -10 -18 -10 -7 0 -6 4 3 10 19 12 23 12 15 0z m-2792
-65 c-3 -9 -8 -14 -10 -11 -3 3 -2 9 2 15 9 16 15 13 8 -4z m268 -28 c-10 -9
-11 -8 -5 6 3 10 9 15 12 12 3 -3 0 -11 -7 -18z m354 -217 c3 -5 1 -10 -4 -10
-6 0 -11 5 -11 10 0 6 2 10 4 10 3 0 8 -4 11 -10z m-1138 -103 c0 -8 -6 -14
-14 -14 -9 0 -10 4 -2 14 6 7 12 13 14 13 1 0 2 -6 2 -13z m1184 -14 c13 -16
12 -17 -3 -4 -10 7 -18 15 -18 17 0 8 8 3 21 -13z m728 -46 c0 -9 -2 -8 -6 1
-2 6 -10 9 -15 6 -7 -4 -8 -2 -4 5 9 13 26 5 25 -12z m-114 3 c3 -5 1 -10 -4
-10 -6 0 -11 5 -11 10 0 6 2 10 4 10 3 0 8 -4 11 -10z m1820 -77 c-18 -17 -18
-17 -6 0 11 14 11 20 0 35 -12 16 -12 16 6 0 19 -18 19 -18 0 -35z m12 -59
c-3 -4 -2 -16 4 -28 10 -20 9 -20 -5 -2 -14 17 -13 36 1 36 4 0 3 -3 0 -6z
m-197 -608 c0 -3 -4 -8 -10 -11 -5 -3 -10 -1 -10 4 0 6 5 11 10 11 6 0 10 -2
10 -4z m-3150 -310 c0 -3 -4 -8 -10 -11 -5 -3 -10 -1 -10 4 0 6 5 11 10 11 6
0 10 -2 10 -4z m2960 -67 c0 -5 -4 -9 -8 -9 -5 0 -9 7 -9 15 0 8 4 12 9 9 4
-3 8 -9 8 -15z m20 -83 c0 -3 -4 -8 -10 -11 -5 -3 -10 -1 -10 4 0 6 5 11 10
11 6 0 10 -2 10 -4z m-2780 -256 c0 -5 -2 -10 -4 -10 -3 0 -8 5 -11 10 -3 6
-1 10 4 10 6 0 11 -4 11 -10z m15 -70 c3 -6 -1 -7 -9 -4 -18 7 -21 14 -7 14 6
0 13 -4 16 -10z m2720 -19 c3 -5 2 -12 -3 -15 -5 -3 -9 1 -9 9 0 17 3 19 12 6z
m-38 -120 c0 -11 -5 -18 -9 -15 -4 3 -5 11 -1 19 7 21 12 19 10 -4z m-44 -156
c-10 -13 -22 -25 -26 -25 -4 0 0 11 10 25 10 13 22 25 26 25 4 0 0 -11 -10
-25z m-2473 -91 c0 -8 -19 -13 -24 -6 -3 5 1 9 9 9 8 0 15 -2 15 -3z m2037
-329 c0 -8 -4 -12 -9 -9 -5 3 -6 10 -3 15 9 13 12 11 12 -6z m137 -124 c3 -5
-1 -11 -9 -14 -9 -4 -12 -1 -8 9 6 16 10 17 17 5z m201 -91 c3 -5 1 -10 -4
-10 -6 0 -11 5 -11 10 0 6 2 10 4 10 3 0 8 -4 11 -10z m-3302 -795 c-3 -9 -8
-14 -10 -11 -3 3 -2 9 2 15 9 16 15 13 8 -4z m3384 -97 c-3 -8 -6 -5 -6 6 -1
11 2 17 5 13 3 -3 4 -12 1 -19z m-2597 -246 c0 -5 -7 -9 -15 -9 -8 0 -12 4 -9
9 3 4 9 8 15 8 5 0 9 -4 9 -8z m-340 -6 c0 -2 -7 -7 -16 -10 -8 -3 -12 -2 -9
4 6 10 25 14 25 6z m256 -295 c-4 -5 -1 -11 6 -13 8 -3 7 -6 -3 -10 -10 -4
-15 1 -16 13 -1 10 3 19 8 19 6 0 8 -4 5 -9z m2738 -227 c3 -8 2 -12 -4 -9 -6
3 -10 10 -10 16 0 14 7 11 14 -7z m-1314 -50 c0 -8 -19 -13 -24 -6 -3 5 1 9 9
9 8 0 15 -2 15 -3z m-175 -164 c-3 -5 -10 -10 -16 -10 -5 0 -9 5 -9 10 0 6 7
10 16 10 8 0 12 -4 9 -10z m1070 -20 c3 -5 1 -10 -4 -10 -6 0 -11 5 -11 10 0
6 2 10 4 10 3 0 8 -4 11 -10z m-41 -406 c3 -8 2 -12 -4 -9 -6 3 -10 10 -10 16
0 14 7 11 14 -7z m-1794 -374 c0 -5 -2 -10 -4 -10 -3 0 -8 5 -11 10 -3 6 -1
10 4 10 6 0 11 -4 11 -10z m1613 -115 c-3 -9 -8 -14 -10 -11 -3 3 -2 9 2 15 9
16 15 13 8 -4z m-1402 -109 c5 3 9 0 9 -6 0 -15 -23 -7 -26 8 -1 7 0 8 3 2 2
-5 9 -8 14 -4z m1129 -80 c0 -2 -8 -10 -17 -17 -16 -13 -17 -12 -4 4 13 16 21
21 21 13z"/>
<path d="M4701 6254 c0 -11 3 -14 6 -6 3 7 2 16 -1 19 -3 4 -6 -2 -5 -13z"/>
<path d="M1710 5976 c0 -2 7 -7 16 -10 8 -3 12 -2 9 4 -6 10 -25 14 -25 6z"/>
<path d="M2616 5961 c-4 -5 -2 -12 3 -15 5 -4 12 -2 15 3 4 5 2 12 -3 15 -5 4
-12 2 -15 -3z"/>
<path d="M1680 5940 c-9 -6 -10 -10 -3 -10 6 0 15 5 18 10 8 12 4 12 -15 0z"/>
<path d="M3694 5872 c3 -6 -1 -15 -9 -20 -15 -8 -14 -10 1 -23 13 -10 15 -10
10 -1 -4 7 -3 19 4 27 8 10 8 15 -1 21 -7 4 -9 3 -5 -4z"/>
<path d="M5160 5698 c0 -4 4 -8 9 -8 6 0 12 4 15 8 3 5 -1 9 -9 9 -8 0 -15 -4
-15 -9z"/>
<path d="M2740 5660 c0 -6 7 -10 15 -10 8 0 15 2 15 4 0 2 -7 6 -15 10 -8 3
-15 1 -15 -4z"/>
<path d="M2996 5633 c-6 -14 -5 -15 5 -6 7 7 10 15 7 18 -3 3 -9 -2 -12 -12z"/>
<path d="M5187 5489 c7 -7 15 -10 18 -7 3 3 -2 9 -12 12 -14 6 -15 5 -6 -5z"/>
<path d="M5076 5052 c-3 -5 1 -9 9 -9 8 0 12 4 9 9 -3 4 -7 8 -9 8 -2 0 -6 -4
-9 -8z"/>
<path d="M1530 4761 c0 -5 7 -12 16 -15 14 -5 15 -4 4 9 -14 17 -20 19 -20 6z"/>
<path d="M1755 4649 c-4 -6 -5 -12 -2 -15 2 -3 7 2 10 11 7 17 1 20 -8 4z"/>
<path d="M1896 4605 c4 -8 8 -15 10 -15 2 0 4 7 4 15 0 8 -4 15 -10 15 -5 0
-7 -7 -4 -15z"/>
<path d="M4780 4241 c0 -5 7 -12 16 -15 14 -5 15 -4 4 9 -14 17 -20 19 -20 6z"/>
<path d="M4545 3701 c-3 -5 -2 -12 3 -15 5 -3 9 1 9 9 0 17 -3 19 -12 6z"/>
<path d="M4265 3380 c-3 -6 1 -7 9 -4 18 7 21 14 7 14 -6 0 -13 -4 -16 -10z"/>
<path d="M2057 3283 c-4 -3 -7 -11 -7 -17 0 -6 5 -5 12 2 6 6 9 14 7 17 -3 3
-9 2 -12 -2z"/>
<path d="M1962 3234 c-7 -8 -8 -14 -3 -14 10 0 25 19 20 25 -2 1 -10 -3 -17
-11z"/>
<path d="M1819 3143 c-13 -16 -12 -17 4 -4 16 13 21 21 13 21 -2 0 -10 -8 -17
-17z"/>
<path d="M1504 2922 c3 -5 0 -13 -6 -15 -9 -4 -10 -6 -1 -6 17 -1 25 16 12 25
-7 4 -9 3 -5 -4z"/>
<path d="M1426 2833 c-6 -14 -5 -15 5 -6 7 7 10 15 7 18 -3 3 -9 -2 -12 -12z"/>
<path d="M5390 2410 c-9 -6 -10 -10 -3 -10 6 0 15 5 18 10 8 12 4 12 -15 0z"/>
<path d="M1240 2361 c0 -6 4 -12 8 -15 5 -3 9 1 9 9 0 8 -4 15 -9 15 -4 0 -8
-4 -8 -9z"/>
<path d="M1276 2247 c3 -10 9 -15 12 -12 3 3 0 11 -7 18 -10 9 -11 8 -5 -6z"/>
<path d="M1980 2216 c0 -2 8 -10 18 -17 15 -13 16 -12 3 4 -13 16 -21 21 -21
13z"/>
<path d="M1585 2071 c-3 -6 3 -9 14 -8 11 0 17 5 15 9 -7 11 -22 10 -29 -1z"/>
<path d="M1996 2047 c3 -10 9 -15 12 -12 3 3 0 11 -7 18 -10 9 -11 8 -5 -6z"/>
<path d="M1970 1940 c0 -5 5 -10 11 -10 5 0 7 5 4 10 -3 6 -8 10 -11 10 -2 0
-4 -4 -4 -10z"/>
<path d="M1950 1599 c0 -5 5 -7 10 -4 6 3 10 8 10 11 0 2 -4 4 -10 4 -5 0 -10
-5 -10 -11z"/>
<path d="M3383 1365 c0 -8 4 -12 9 -9 5 3 6 10 3 15 -9 13 -12 11 -12 -6z"/>
<path d="M4310 1376 c0 -2 7 -7 16 -10 8 -3 12 -2 9 4 -6 10 -25 14 -25 6z"/>
<path d="M3381 1327 c-8 -10 -7 -14 2 -14 8 0 14 6 14 14 0 7 -1 13 -2 13 -2
0 -8 -6 -14 -13z"/>
<path d="M2288 1294 c-16 -8 -28 -17 -28 -20 0 -2 9 0 20 6 11 6 24 9 29 6 4
-3 8 1 8 9 0 8 -1 15 -1 15 -1 -1 -13 -8 -28 -16z"/>
<path d="M2353 965 c0 -8 4 -15 9 -15 4 0 8 4 8 9 0 6 -4 12 -8 15 -5 3 -9 -1
-9 -9z"/>
<path d="M3362 886 c7 -8 15 -12 17 -11 5 6 -10 25 -20 25 -5 0 -4 -6 3 -14z"/>
<path d="M4185 600 c3 -5 8 -10 11 -10 2 0 4 5 4 10 0 6 -5 10 -11 10 -5 0 -7
-4 -4 -10z"/>
<path d="M4115 500 c-3 -5 -1 -10 4 -10 6 0 11 5 11 10 0 6 -2 10 -4 10 -3 0
-8 -4 -11 -10z"/>
<path d="M2580 366 c0 -2 7 -7 16 -10 8 -3 12 -2 9 4 -6 10 -25 14 -25 6z"/>
</g>
</svg>
